<svg xmlns="http://www.w3.org/2000/svg" viewBox="0 0 44 44"><defs><style>.cls-1{fill:#4c9cd6;}.cls-2{fill:#fff;}</style></defs><g id="Layer_2" data-name="Layer 2"><g id="Layer_1-2" data-name="Layer 1"><circle class="cls-1" cx="22" cy="22" r="22"/><path class="cls-2" d="M18.48,29.7A11,11,0,0,0,29.55,18.64c0-.17,0-.34,0-.51a7.73,7.73,0,0,0,1.94-2,7.66,7.66,0,0,1-2.24.61A3.86,3.86,0,0,0,31,14.58a7.78,7.78,0,0,1-2.47.95,3.85,3.85,0,0,0-2.83-1.23,3.89,3.89,0,0,0-3.89,3.89,3.65,3.65,0,0,0,.1.88,11.06,11.06,0,0,1-8-4.06,3.9,3.9,0,0,0,1.21,5.19,3.81,3.81,0,0,1-1.77-.49v.05a3.9,3.9,0,0,0,3.12,3.82,3.8,3.8,0,0,1-1,.13,3.48,3.48,0,0,1-.73-.07,3.88,3.88,0,0,0,3.63,2.7A7.77,7.77,0,0,1,13.45,28c-.31,0-.62,0-.93-.05a11,11,0,0,0,6,1.74"/></g></g></svg>