<svg xmlns="http://www.w3.org/2000/svg" viewBox="0 0 44 44"><defs><style>.cls-1{fill:#ed472e;}.cls-2{fill:#fff;}</style></defs><g id="Layer_2" data-name="Layer 2"><g id="Layer_1-2" data-name="Layer 1"><circle class="cls-1" cx="22" cy="22" r="22"/><path class="cls-2" d="M32.14,15.85c-.6-1.07-1.25-1.27-2.58-1.34s-4.67-.13-7.56-.13-6.23,0-7.56.12-2,.28-2.59,1.35-.94,2.91-.94,6.15h0c0,3.22.32,5.08.94,6.13s1.26,1.27,2.59,1.36,4.67.12,7.56.12,6.23,0,7.56-.12,2-.28,2.59-1.35.94-2.92.94-6.14h0C33.09,18.76,32.77,16.92,32.14,15.85ZM19.23,26.16V17.84L26.16,22Z"/></g></g></svg>